{
    "asset" : {
        "generator" : "Khronos glTF Blender I/O v0.9.36",
        "version" : "2.0"
    },
    "scene" : 0,
    "scenes" : [
        {
            "name" : "Scene",
            "nodes" : [
                0
            ]
        }
    ],
    "nodes" : [
        {
            "mesh" : 0,
            "name" : "Merged_PM3D_Cylinder3D2",
            "rotation" : [
                0.5451640486717224,
                0.4556439518928528,
                -0.4641946256160736,
                0.528874397277832
            ],
            "scale" : [
                4.956598281860352,
                4.956597805023193,
                4.956598281860352
            ],
            "translation" : [
                0.07079702615737915,
                9.745765686035156,
                -20.863466262817383
            ]
        }
    ],
    "animations" : [
        {
            "channels" : [
                {
                    "sampler" : 0,
                    "target" : {
                        "node" : 0,
                        "path" : "translation"
                    }
                },
                {
                    "sampler" : 1,
                    "target" : {
                        "node" : 0,
                        "path" : "rotation"
                    }
                },
                {
                    "sampler" : 2,
                    "target" : {
                        "node" : 0,
                        "path" : "scale"
                    }
                }
            ],
            "name" : "Merged_PM3D_Cylinder3D2Action",
            "samplers" : [
                {
                    "input" : 4,
                    "interpolation" : "STEP",
                    "output" : 5
                },
                {
                    "input" : 4,
                    "interpolation" : "STEP",
                    "output" : 6
                },
                {
                    "input" : 4,
                    "interpolation" : "STEP",
                    "output" : 7
                }
            ]
        }
    ],
    "materials" : [
        {
            "doubleSided" : true,
            "name" : "Merged_PM3D_Cylinder3D2",
            "pbrMetallicRoughness" : {
                "baseColorTexture" : {
                    "index" : 0,
                    "texCoord" : 0
                },
                "metallicFactor" : 0,
                "roughnessFactor" : 1
            }
        }
    ],
    "meshes" : [
        {
            "name" : "Merged_PM3D_Cylinder3D2",
            "primitives" : [
                {
                    "attributes" : {
                        "POSITION" : 0,
                        "NORMAL" : 1,
                        "TEXCOORD_0" : 2
                    },
                    "indices" : 3,
                    "material" : 0
                }
            ]
        }
    ],
    "textures" : [
        {
            "source" : 0
        }
    ],
    "images" : [
        {
            "bufferView" : 4,
            "mimeType" : "image/png",
            "name" : "twee_Merged_PM3D_Cylinder3D2_BaseColor"
        }
    ],
    "accessors" : [
        {
            "bufferView" : 0,
            "componentType" : 5126,
            "count" : 2035,
            "max" : [
                2.552889585494995,
                1.8147345781326294,
                2.1588633060455322
            ],
            "min" : [
                -1.7610734701156616,
                -1.8276517391204834,
                -2.5173146724700928
            ],
            "type" : "VEC3"
        },
        {
            "bufferView" : 1,
            "componentType" : 5126,
            "count" : 2035,
            "type" : "VEC3"
        },
        {
            "bufferView" : 2,
            "componentType" : 5126,
            "count" : 2035,
            "type" : "VEC2"
        },
        {
            "bufferView" : 3,
            "componentType" : 5123,
            "count" : 10836,
            "type" : "SCALAR"
        },
        {
            "bufferView" : 5,
            "componentType" : 5126,
            "count" : 1,
            "max" : [
                0
            ],
            "min" : [
                0
            ],
            "type" : "SCALAR"
        },
        {
            "bufferView" : 6,
            "componentType" : 5126,
            "count" : 1,
            "type" : "VEC3"
        },
        {
            "bufferView" : 7,
            "componentType" : 5126,
            "count" : 1,
            "type" : "VEC4"
        },
        {
            "bufferView" : 8,
            "componentType" : 5126,
            "count" : 1,
            "type" : "VEC3"
        }
    ],
    "bufferViews" : [
        {
            "buffer" : 0,
            "byteLength" : 24420,
            "byteOffset" : 0
        },
        {
            "buffer" : 0,
            "byteLength" : 24420,
            "byteOffset" : 24420
        },
        {
            "buffer" : 0,
            "byteLength" : 16280,
            "byteOffset" : 48840
        },
        {
            "buffer" : 0,
            "byteLength" : 21672,
            "byteOffset" : 65120
        },
        {
            "buffer" : 0,
            "byteLength" : 1204306,
            "byteOffset" : 86792
        },
        {
            "buffer" : 0,
            "byteLength" : 4,
            "byteOffset" : 1291100
        },
        {
            "buffer" : 0,
            "byteLength" : 12,
            "byteOffset" : 1291104
        },
        {
            "buffer" : 0,
            "byteLength" : 16,
            "byteOffset" : 1291116
        },
        {
            "buffer" : 0,
            "byteLength" : 12,
            "byteOffset" : 1291132
        }
    ],
    "buffers" : [
        {
            "byteLength" : 1291144,
            "uri" : "data:application/octet-stream;base64,"
        }
    ]
}
